<svg width="648" height="940" viewBox="0 0 648 940" fill="none" xmlns="http://www.w3.org/2000/svg">
<path d="M632 10.4C626.533 15.6 602.133 38.8 578 61.8666C553.733 84.9333 528 109.6 520.667 116.667C513.333 123.733 493.867 142.4 477.333 158C460.8 173.733 440.133 193.467 431.333 201.867C414.133 218.533 391.067 240.533 370.667 259.867C358.133 271.867 344.667 284.667 311.333 316.667C301.867 325.867 281.467 345.333 266 360C250.667 374.667 231.733 392.667 224 400.133C216.267 407.467 204 419.333 196.667 426.4C185.333 437.2 182.933 440.267 180.933 446.267C178.667 452.933 178.533 467.067 178.933 695.2C179.333 920.933 179.467 937.2 181.6 938.533C183.067 939.467 184.933 939.467 187.2 938.667C190.267 937.467 206.933 922.4 239.333 891.467C246 885.2 257.733 874 265.733 866.8L280 853.6V785.333V717.067L346 652.8C382.267 617.333 412.267 587.2 412.667 585.6C413.067 584 413.2 551.467 413.067 513.333C412.667 450.133 412.533 444 410.533 444C408.133 444 400.667 451.067 328.133 521.867C301.6 548 278.933 569.467 277.867 569.733C276.267 570.133 276 564.933 276 538.4V506.533L286.4 496.533C292 491.067 315.333 468.933 338 447.333C360.8 425.867 386 401.867 394 394.133C408 380.667 449.067 341.6 473.333 318.667C479.6 312.667 498 295.067 514.267 279.467C530.533 263.867 544.533 251.467 545.333 252C546.267 252.533 546.667 291.067 546.667 374.133C546.667 440.933 546.933 496 547.333 496.8C548.8 499.067 551.6 498 560.133 491.6C564.8 488 585.467 472.933 606 458.133C626.533 443.2 644.4 429.867 645.733 428.4C647.867 425.867 648 413.733 648 214.533C648 7.19995 648 3.46662 645.467 1.99995C644 1.33328 642.667 0.666618 642.4 0.666618C642.133 0.666618 637.467 5.06662 632 10.4Z" fill="white"/>
<path d="M2.26667 6.53336C0.133333 8.2667 0 28.2667 0 393.6C0 691.467 0.4 779.2 1.6 780.4C5.6 784.4 7.46667 782.933 47.3333 746.667C54 740.667 68.5333 727.467 79.6 717.467L100 699.2L100.133 491.6C100.267 297.867 100.533 252.933 101.867 251.733C102.267 251.2 178.667 332.933 187.067 342.933C189.867 346.267 191.867 347.333 195.067 347.333C198.933 347.333 203.467 343.2 237.733 308.933C268.533 278.133 276 270 276 267.2C276 263.067 263.467 250.533 166.667 158C148 140.133 125.2 118.267 116 109.333C106.8 100.4 83.2 77.6 63.3333 58.6667C43.6 39.6 22.9333 19.8667 17.6 14.6667C12.2667 9.60003 7.2 5.20003 6.26667 5.0667C5.33333 4.80003 3.6 5.4667 2.26667 6.53336Z" fill="white"/>
</svg>
